<svg xmlns="http://www.w3.org/2000/svg" xmlns:xlink="http://www.w3.org/1999/xlink" width="1000" zoomAndPan="magnify" viewBox="0 0 750 749.999995" height="1000" preserveAspectRatio="xMidYMid meet" version="1.0"><defs><g/><clipPath id="f4262ba80b"><path d="M 189.292969 114 L 330 114 L 330 265 L 189.292969 265 Z M 189.292969 114 " clip-rule="nonzero"/></clipPath><clipPath id="c0e2e320bc"><path d="M 439 200 L 560.542969 200 L 560.542969 380 L 439 380 Z M 439 200 " clip-rule="nonzero"/></clipPath></defs><g clip-path="url(#f4262ba80b)"><path fill="#00adef" d="M 201.335938 167.84375 C 220.621094 146.460938 247.433594 131.019531 273.746094 116.773438 L 275.066406 116.082031 L 277.960938 114.503906 C 296.363281 118.285156 313.488281 123.453125 329.160156 129.960938 C 326.890625 157.746094 324.601562 185.484375 322.308594 213.269531 L 322.222656 214.285156 C 296.449219 229.832031 270.308594 246.003906 246.632812 264.578125 C 226.632812 257.03125 207.324219 248.316406 189.292969 238.71875 L 189.292969 238.675781 C 190.289062 215.128906 193.511719 193.703125 198.957031 174.71875 " fill-opacity="1" fill-rule="evenodd"/></g><path fill="#372b70" d="M 439.214844 88.277344 L 433.398438 102.503906 C 431.191406 102.394531 428.902344 102.351562 426.5 102.351562 C 402.523438 102.351562 369.398438 107.257812 337.917969 115.476562 L 333.898438 116.558594 L 333.875 116.558594 C 319.085938 109.984375 300.339844 104.621094 284.902344 101.746094 C 287.605469 97.054688 291.324219 92.773438 296.277344 88.492188 C 319.109375 80.101562 343.085938 75.84375 367.582031 75.800781 L 367.972656 75.800781 C 392.230469 75.800781 416.078125 79.953125 438.824219 88.144531 L 439.214844 88.277344 " fill-opacity="1" fill-rule="evenodd"/><path fill="#372b70" d="M 556.011719 194.027344 C 556.011719 202.351562 555.0625 209.613281 553.160156 215.734375 C 552.554688 215.300781 551.949219 214.890625 551.34375 214.480469 C 551.019531 214.261719 550.695312 214.027344 550.371094 213.832031 C 549.546875 213.269531 548.703125 212.707031 547.882812 212.167969 C 534.738281 203.496094 520.574219 195.84375 505.699219 189.378906 L 503.0625 184.816406 C 486.757812 156.707031 467.625 130.761719 446.113281 107.734375 L 453.007812 93.875 C 455.257812 94.871094 457.507812 95.910156 459.710938 96.988281 L 460.359375 97.3125 C 480.574219 107.28125 498.996094 120.492188 515.105469 136.578125 C 532.054688 153.421875 545.785156 172.730469 556.011719 194.027344 " fill-opacity="1" fill-rule="evenodd"/><g clip-path="url(#c0e2e320bc)"><path fill="#00adef" d="M 560.011719 315.730469 L 560.011719 316.101562 C 559.96875 317.980469 559.90625 319.863281 559.816406 321.765625 L 559.730469 324.292969 C 547.472656 344.230469 533.613281 362.824219 518.371094 379.796875 C 495.386719 372.097656 473.160156 363.148438 452.339844 353.136719 C 450.585938 329.460938 445.789062 298.414062 441.289062 275.820312 C 440.621094 271.777344 439.929688 267.992188 439.234375 264.382812 L 439.386719 264.230469 C 460.726562 244.210938 481.09375 222.632812 499.992188 200.058594 C 517.679688 208.726562 534.109375 218.824219 549.074219 230.242188 L 550.867188 235.820312 L 550.976562 236.1875 C 557.765625 258.652344 560.8125 285.460938 560.011719 315.730469 " fill-opacity="1" fill-rule="evenodd"/></g><path fill="#00adef" d="M 431.453125 358.328125 L 431.453125 358.347656 C 431.367188 358.414062 431.28125 358.476562 431.191406 358.542969 L 430.652344 359.019531 C 410.285156 376.464844 387.496094 391.730469 362.027344 408.226562 L 358.546875 410.476562 L 274.675781 376.164062 C 274.632812 375.96875 274.589844 375.753906 274.546875 375.535156 L 272.644531 366.585938 L 272.515625 366.585938 C 266.589844 338.800781 262.589844 308.707031 260.644531 276.945312 L 260.621094 276.425781 L 329.3125 224.664062 L 334.632812 220.640625 C 365.074219 230.78125 393.746094 242.804688 419.949219 256.382812 C 420.296875 258.628906 420.621094 260.859375 420.921875 263.085938 C 425.332031 293.808594 428.859375 325.765625 431.453125 358.328125 " fill-opacity="1" fill-rule="evenodd"/><path fill="#00adef" d="M 240.277344 307.128906 C 240.253906 307.148438 240.253906 307.148438 240.234375 307.171875 L 240.105469 307.277344 C 235.671875 311.082031 230.699219 314.414062 225.140625 318.003906 L 224.386719 318.5 L 206.09375 311.019531 C 206.09375 310.976562 206.070312 310.933594 206.070312 310.890625 L 205.660156 308.921875 L 205.617188 308.921875 C 204.34375 302.867188 203.457031 296.316406 203.023438 289.375 L 203.023438 289.269531 L 218.007812 277.980469 L 219.175781 277.09375 C 225.8125 279.320312 232.0625 281.9375 237.769531 284.898438 C 237.855469 285.375 237.921875 285.875 237.984375 286.347656 C 238.9375 293.050781 239.714844 300.011719 240.277344 307.128906 " fill-opacity="1" fill-rule="evenodd"/><path fill="#00adef" d="M 467.648438 406.628906 C 467.625 406.648438 467.601562 406.671875 467.582031 406.671875 L 467.472656 406.78125 C 463.042969 410.585938 458.046875 413.914062 452.511719 417.503906 L 451.753906 418 L 433.464844 410.519531 C 433.441406 410.476562 433.441406 410.433594 433.421875 410.390625 L 433.007812 408.421875 L 432.988281 408.421875 C 431.691406 402.367188 430.824219 395.816406 430.394531 388.878906 L 430.394531 388.769531 L 445.375 377.484375 L 446.523438 376.597656 C 453.160156 378.824219 459.429688 381.441406 465.136719 384.402344 C 465.203125 384.878906 465.269531 385.375 465.355469 385.871094 C 466.304688 392.554688 467.085938 399.535156 467.648438 406.628906 " fill-opacity="1" fill-rule="evenodd"/><path fill="#372b70" d="M 494.5 189.203125 C 475.257812 212.359375 454.71875 234.21875 432.859375 254.761719 L 431.019531 253.765625 C 429.875 253.160156 428.75 252.554688 427.019531 251.648438 C 426.847656 251.539062 426.652344 251.429688 426.4375 251.34375 C 398.027344 236.382812 367.410156 223.625 334.785156 212.921875 C 337.117188 184.40625 339.453125 155.886719 341.789062 127.367188 L 341.960938 125.140625 C 375.238281 116.449219 412.75 111.109375 436.210938 112.621094 L 437.722656 112.730469 C 459.257812 135.605469 478.199219 161.097656 494.5 189.203125 " fill-opacity="1" fill-rule="evenodd"/><g fill="#2e3192" fill-opacity="1"><g transform="translate(132.015084, 569.382707)"><g><path d="M 81.476562 0 L 81.476562 -9.980469 L 17.25 -9.980469 L 17.25 -87.984375 L 6.617188 -87.984375 L 6.617188 0 Z M 81.476562 0 "/></g></g></g><g fill="#2e3192" fill-opacity="1"><g transform="translate(222.169951, 569.382707)"><g><path d="M 105.019531 0 L 59.453125 -87.984375 L 46.976562 -87.984375 L 1.734375 0 L 13.128906 0 L 26.6875 -26.472656 L 80.066406 -26.472656 L 93.625 0 Z M 75.183594 -35.800781 L 31.351562 -35.800781 L 53.269531 -78.65625 Z M 75.183594 -35.800781 "/></g></g></g><g fill="#2e3192" fill-opacity="1"><g transform="translate(335.541625, 569.382707)"><g><path d="M 61.730469 -45.675781 C 73.554688 -49.039062 80.390625 -57.609375 80.390625 -66.9375 L 80.390625 -67.261719 C 80.390625 -81.691406 65.960938 -89.285156 43.179688 -89.285156 C 28.53125 -89.285156 14.210938 -85.707031 5.207031 -80.609375 L 11.066406 -71.710938 C 19.3125 -76.59375 31.136719 -79.199219 42.203125 -79.199219 C 59.777344 -79.199219 69.433594 -74.316406 69.433594 -65.203125 L 69.433594 -64.984375 C 69.433594 -55.980469 58.585938 -50.339844 38.296875 -50.339844 L 28.425781 -50.339844 L 28.425781 -40.464844 L 39.054688 -40.464844 C 59.453125 -40.464844 70.953125 -34.5 70.953125 -24.953125 L 70.953125 -24.628906 C 70.953125 -14.644531 61.296875 -8.894531 41.660156 -8.894531 C 30.269531 -8.894531 17.902344 -11.71875 9.332031 -16.492188 L 3.472656 -7.59375 C 13.34375 -2.277344 28.207031 1.195312 42.746094 1.195312 C 67.699219 1.195312 82.777344 -7.484375 82.777344 -23 L 82.777344 -23.542969 C 82.777344 -33.414062 75.617188 -42.527344 61.730469 -45.675781 Z M 61.730469 -45.675781 "/></g></g></g><g fill="#2e3192" fill-opacity="1"><g transform="translate(431.8804, 569.382707)"><g><path d="M 81.476562 0 L 81.476562 -9.980469 L 17.25 -9.980469 L 17.25 -40.359375 L 76.917969 -40.359375 L 76.917969 -50.339844 L 17.25 -50.339844 L 17.25 -78.003906 L 81.042969 -78.003906 L 81.042969 -87.984375 L 6.617188 -87.984375 L 6.617188 0 Z M 81.476562 0 "/></g></g></g><g fill="#2e3192" fill-opacity="1"><g transform="translate(524.2051, 569.382707)"><g><path d="M 59.125 0 C 78.546875 0 88.960938 -9.113281 88.960938 -25.0625 L 88.960938 -25.167969 C 88.960938 -35.585938 82.234375 -43.503906 71.0625 -46.324219 C 79.632812 -49.6875 84.839844 -57.609375 84.839844 -66.722656 L 84.839844 -66.828125 C 84.839844 -79.414062 75.617188 -87.984375 57.5 -87.984375 L 6.617188 -87.984375 L 6.617188 0 Z M 17.359375 -78.003906 L 56.523438 -78.003906 C 67.699219 -78.003906 74.097656 -72.253906 74.097656 -64.007812 L 74.097656 -63.898438 C 74.097656 -55.328125 67.699219 -50.339844 56.523438 -50.339844 L 17.359375 -50.339844 Z M 17.359375 -40.359375 L 57.5 -40.359375 C 70.300781 -40.359375 78.003906 -35.476562 78.003906 -26.472656 L 78.003906 -26.363281 C 78.003906 -16.382812 70.953125 -9.980469 58.257812 -9.980469 L 17.359375 -9.980469 Z M 17.359375 -40.359375 "/></g></g></g><g fill="#2e3192" fill-opacity="1"><g transform="translate(624.455414, 569.382707)"><g/></g></g></svg>