<svg xmlns="http://www.w3.org/2000/svg" xmlns:xlink="http://www.w3.org/1999/xlink" width="1000" zoomAndPan="magnify" viewBox="0 0 750 749.999995" height="1000" preserveAspectRatio="xMidYMid meet" version="1.0"><defs><g/><clipPath id="ef8b780a1d"><path d="M 176.769531 117 L 327 117 L 327 278 L 176.769531 278 Z M 176.769531 117 " clip-rule="nonzero"/></clipPath><clipPath id="5034a196b2"><path d="M 434 396 L 474 396 L 474 441.136719 L 434 441.136719 Z M 434 396 " clip-rule="nonzero"/></clipPath></defs><g fill="#ffffff" fill-opacity="1"><g transform="translate(132.049203, 573.423736)"><g><path d="M 81.472656 0 L 81.472656 -9.980469 L 17.25 -9.980469 L 17.25 -87.984375 L 6.617188 -87.984375 L 6.617188 0 Z M 81.472656 0 "/></g></g></g><g fill="#ffffff" fill-opacity="1"><g transform="translate(222.197068, 573.423736)"><g><path d="M 105.015625 0 L 59.449219 -87.984375 L 46.976562 -87.984375 L 1.734375 0 L 13.128906 0 L 26.6875 -26.472656 L 80.0625 -26.472656 L 93.625 0 Z M 75.183594 -35.800781 L 31.351562 -35.800781 L 53.265625 -78.652344 Z M 75.183594 -35.800781 "/></g></g></g><g fill="#ffffff" fill-opacity="1"><g transform="translate(335.559752, 573.423736)"><g><path d="M 61.730469 -45.671875 C 73.554688 -49.035156 80.390625 -57.605469 80.390625 -66.9375 L 80.390625 -67.261719 C 80.390625 -81.691406 65.960938 -89.285156 43.179688 -89.285156 C 28.53125 -89.285156 14.210938 -85.707031 5.207031 -80.605469 L 11.066406 -71.710938 C 19.3125 -76.59375 31.136719 -79.195312 42.203125 -79.195312 C 59.777344 -79.195312 69.433594 -74.3125 69.433594 -65.199219 L 69.433594 -64.984375 C 69.433594 -55.980469 58.582031 -50.339844 38.296875 -50.339844 L 28.421875 -50.339844 L 28.421875 -40.464844 L 39.054688 -40.464844 C 59.449219 -40.464844 70.949219 -34.5 70.949219 -24.953125 L 70.949219 -24.625 C 70.949219 -14.644531 61.296875 -8.894531 41.660156 -8.894531 C 30.269531 -8.894531 17.902344 -11.714844 9.328125 -16.488281 L 3.472656 -7.59375 C 13.34375 -2.277344 28.207031 1.195312 42.742188 1.195312 C 67.695312 1.195312 82.777344 -7.484375 82.777344 -23 L 82.777344 -23.542969 C 82.777344 -33.414062 75.617188 -42.527344 61.730469 -45.671875 Z M 61.730469 -45.671875 "/></g></g></g><g fill="#ffffff" fill-opacity="1"><g transform="translate(431.890985, 573.423736)"><g><path d="M 81.472656 0 L 81.472656 -9.980469 L 17.25 -9.980469 L 17.25 -40.355469 L 76.917969 -40.355469 L 76.917969 -50.339844 L 17.25 -50.339844 L 17.25 -78.003906 L 81.039062 -78.003906 L 81.039062 -87.984375 L 6.617188 -87.984375 L 6.617188 0 Z M 81.472656 0 "/></g></g></g><g fill="#ffffff" fill-opacity="1"><g transform="translate(524.208455, 573.423736)"><g><path d="M 59.125 0 C 78.546875 0 88.960938 -9.113281 88.960938 -25.0625 L 88.960938 -25.167969 C 88.960938 -35.582031 82.234375 -43.503906 71.058594 -46.324219 C 79.628906 -49.6875 84.835938 -57.605469 84.835938 -66.71875 L 84.835938 -66.828125 C 84.835938 -79.414062 75.617188 -87.984375 57.5 -87.984375 L 6.617188 -87.984375 L 6.617188 0 Z M 17.359375 -78.003906 L 56.523438 -78.003906 C 67.695312 -78.003906 74.097656 -72.253906 74.097656 -64.007812 L 74.097656 -63.898438 C 74.097656 -55.328125 67.695312 -50.339844 56.523438 -50.339844 L 17.359375 -50.339844 Z M 17.359375 -40.355469 L 57.5 -40.355469 C 70.300781 -40.355469 78.003906 -35.476562 78.003906 -26.472656 L 78.003906 -26.363281 C 78.003906 -16.382812 70.949219 -9.980469 58.257812 -9.980469 L 17.359375 -9.980469 Z M 17.359375 -40.355469 "/></g></g></g><g fill="#ffffff" fill-opacity="1"><g transform="translate(624.447617, 573.423736)"><g/></g></g><g clip-path="url(#ef8b780a1d)"><path fill="#ffffff" d="M 189.625 174.101562 C 210.210938 151.277344 238.832031 134.796875 266.917969 119.585938 L 268.328125 118.847656 L 271.421875 117.164062 C 291.0625 121.203125 309.339844 126.71875 326.074219 133.667969 C 323.648438 163.324219 321.203125 192.933594 318.757812 222.59375 L 318.664062 223.679688 C 291.152344 240.273438 263.25 257.535156 237.976562 277.363281 C 216.628906 269.308594 196.019531 260.003906 176.769531 249.757812 L 176.769531 249.710938 C 177.832031 224.578125 181.269531 201.707031 187.085938 181.441406 " fill-opacity="1" fill-rule="evenodd"/></g><path fill="#00adef" d="M 443.550781 89.167969 L 437.339844 104.355469 C 434.988281 104.238281 432.539062 104.191406 429.980469 104.191406 C 404.382812 104.191406 369.023438 109.433594 335.421875 118.203125 L 331.128906 119.355469 L 331.105469 119.355469 C 315.316406 112.339844 295.308594 106.617188 278.828125 103.546875 C 281.714844 98.539062 285.683594 93.96875 290.96875 89.398438 C 315.339844 80.445312 340.9375 75.898438 367.085938 75.851562 L 367.5 75.851562 C 393.398438 75.851562 418.855469 80.28125 443.132812 89.03125 L 443.550781 89.167969 " fill-opacity="1" fill-rule="evenodd"/><path fill="#00adef" d="M 568.226562 202.050781 C 568.226562 210.9375 567.210938 218.691406 565.179688 225.222656 C 564.535156 224.761719 563.886719 224.324219 563.242188 223.886719 C 562.894531 223.65625 562.550781 223.402344 562.203125 223.191406 C 561.328125 222.59375 560.425781 221.992188 559.550781 221.414062 C 545.515625 212.160156 530.398438 203.992188 514.519531 197.089844 L 511.703125 192.21875 C 494.300781 162.214844 473.875 134.519531 450.914062 109.941406 L 458.273438 95.144531 C 460.675781 96.207031 463.074219 97.316406 465.429688 98.46875 L 466.121094 98.816406 C 487.703125 109.457031 507.367188 123.558594 524.558594 140.730469 C 542.65625 158.707031 557.3125 179.316406 568.226562 202.050781 " fill-opacity="1" fill-rule="evenodd"/><path fill="#ffffff" d="M 572.496094 331.96875 L 572.496094 332.359375 C 572.449219 334.367188 572.382812 336.375 572.289062 338.40625 L 572.195312 341.109375 C 559.109375 362.386719 544.316406 382.238281 528.046875 400.355469 C 503.511719 392.136719 479.785156 382.582031 457.558594 371.898438 C 455.691406 346.625 450.566406 313.480469 445.765625 289.363281 C 445.050781 285.046875 444.3125 281.007812 443.574219 277.152344 L 443.734375 276.992188 C 466.515625 255.621094 488.253906 232.585938 508.425781 208.492188 C 527.308594 217.746094 544.847656 228.523438 560.820312 240.710938 L 562.734375 246.664062 L 562.851562 247.058594 C 570.097656 271.039062 573.351562 299.65625 572.496094 331.96875 " fill-opacity="1" fill-rule="evenodd"/><path fill="#ffffff" d="M 435.265625 377.4375 L 435.265625 377.460938 C 435.171875 377.527344 435.078125 377.597656 434.988281 377.667969 L 434.410156 378.175781 C 412.667969 396.800781 388.34375 413.09375 361.15625 430.703125 L 357.4375 433.105469 L 267.910156 396.476562 C 267.867188 396.269531 267.820312 396.039062 267.773438 395.808594 L 265.742188 386.253906 L 265.605469 386.253906 C 259.28125 356.59375 255.011719 324.46875 252.933594 290.5625 L 252.910156 290.007812 L 326.234375 234.757812 L 331.914062 230.464844 C 364.410156 241.289062 395.011719 254.121094 422.984375 268.613281 C 423.355469 271.015625 423.703125 273.390625 424.023438 275.769531 C 428.734375 308.566406 432.496094 342.675781 435.265625 377.4375 " fill-opacity="1" fill-rule="evenodd"/><path fill="#ffffff" d="M 231.191406 322.78125 C 231.167969 322.804688 231.167969 322.804688 231.144531 322.828125 L 231.007812 322.945312 C 226.277344 327.007812 220.96875 330.5625 215.035156 334.390625 L 214.226562 334.921875 L 194.703125 326.9375 C 194.703125 326.890625 194.679688 326.84375 194.679688 326.796875 L 194.242188 324.699219 L 194.195312 324.699219 C 192.832031 318.234375 191.886719 311.242188 191.425781 303.835938 L 191.425781 303.71875 L 207.417969 291.671875 L 208.664062 290.726562 C 215.75 293.101562 222.421875 295.894531 228.515625 299.058594 C 228.605469 299.566406 228.675781 300.09375 228.746094 300.601562 C 229.761719 307.757812 230.59375 315.191406 231.191406 322.78125 " fill-opacity="1" fill-rule="evenodd"/><g clip-path="url(#5034a196b2)"><path fill="#ffffff" d="M 473.898438 428.996094 C 473.875 429.019531 473.855469 429.042969 473.832031 429.042969 L 473.714844 429.15625 C 468.984375 433.21875 463.652344 436.773438 457.742188 440.605469 L 456.9375 441.136719 L 437.410156 433.152344 C 437.386719 433.105469 437.386719 433.058594 437.363281 433.011719 L 436.925781 430.910156 L 436.902344 430.910156 C 435.519531 424.449219 434.59375 417.457031 434.132812 410.046875 L 434.132812 409.933594 L 450.128906 397.886719 L 451.351562 396.9375 C 458.4375 399.316406 465.128906 402.109375 471.222656 405.269531 C 471.292969 405.777344 471.359375 406.308594 471.453125 406.839844 C 472.46875 413.972656 473.300781 421.425781 473.898438 428.996094 " fill-opacity="1" fill-rule="evenodd"/></g><path fill="#00adef" d="M 502.566406 196.90625 C 482.023438 221.625 460.097656 244.957031 436.765625 266.882812 L 434.800781 265.820312 C 433.578125 265.175781 432.378906 264.527344 430.53125 263.558594 C 430.347656 263.445312 430.140625 263.328125 429.910156 263.238281 C 399.582031 247.265625 366.902344 233.648438 332.074219 222.222656 C 334.566406 191.78125 337.058594 161.339844 339.550781 130.898438 L 339.738281 128.519531 C 375.257812 119.242188 415.300781 113.539062 440.34375 115.15625 L 441.957031 115.273438 C 464.945312 139.691406 485.164062 166.902344 502.566406 196.90625 " fill-opacity="1" fill-rule="evenodd"/></svg>